<svg width="136" height="46" viewBox="0 0 136 46" fill="none" xmlns="http://www.w3.org/2000/svg">
<rect width="136" height="46" rx="6" fill="white"/>
<path d="M26.72 19.48C26.5733 20.3333 26.22 21.0467 25.66 21.62C25.1133 22.18 24.4533 22.5467 23.68 22.72C24.4 22.8933 24.9533 23.2333 25.34 23.74C25.74 24.2333 25.94 24.82 25.94 25.5C25.94 25.7 25.92 25.9133 25.88 26.14C25.6667 27.3533 25.0933 28.3 24.16 28.98C23.24 29.66 22.0267 30 20.52 30H13.94L16.42 15.86H22.84C24.1067 15.86 25.08 16.1067 25.76 16.6C26.4533 17.0933 26.8 17.8 26.8 18.72C26.8 18.88 26.7733 19.1333 26.72 19.48ZM18.84 21.64H21.06C22.2467 21.64 22.9333 21.1333 23.12 20.12C23.1467 19.96 23.16 19.84 23.16 19.76C23.16 18.9867 22.6267 18.6 21.56 18.6H19.36L18.84 21.64ZM22.46 25.66C22.4867 25.5 22.5 25.38 22.5 25.3C22.5 24.9 22.3533 24.5933 22.06 24.38C21.78 24.1533 21.3733 24.04 20.84 24.04H18.42L17.84 27.22H20.28C21.56 27.22 22.2867 26.7 22.46 25.66ZM34.2864 18.7C35.7531 18.7 36.8997 19.0933 37.7264 19.88C38.5664 20.6533 38.9864 21.6933 38.9864 23C38.9864 23.3067 38.9531 23.68 38.8864 24.12C38.8331 24.44 38.7464 24.7467 38.6264 25.04H30.8864C30.8597 25.3067 30.8464 25.4867 30.8464 25.58C30.8464 26.7933 31.4264 27.4 32.5864 27.4C33.0797 27.4 33.5197 27.2733 33.9064 27.02C34.2931 26.7667 34.5731 26.44 34.7464 26.04H38.3664C37.9264 27.2533 37.1597 28.24 36.0664 29C34.9864 29.76 33.7197 30.14 32.2664 30.14C30.8264 30.14 29.6797 29.74 28.8264 28.94C27.9864 28.14 27.5664 27.0333 27.5664 25.62C27.5664 25.1933 27.6064 24.74 27.6864 24.26C27.8864 23.1267 28.2997 22.14 28.9264 21.3C29.5531 20.46 30.3264 19.82 31.2464 19.38C32.1797 18.9267 33.1931 18.7 34.2864 18.7ZM35.5064 23.6C35.5464 23.3733 35.5664 23.1733 35.5664 23C35.5664 22.4667 35.3997 22.0667 35.0664 21.8C34.7331 21.5333 34.3131 21.4 33.8064 21.4C33.1797 21.4 32.6264 21.5867 32.1464 21.96C31.6664 22.3333 31.3331 22.88 31.1464 23.6H35.5064ZM45.7088 15.2L43.1088 30H39.6688L42.2688 15.2H45.7088ZM47.5319 16.02C47.5319 15.42 47.7585 14.92 48.2119 14.52C48.6652 14.1067 49.2319 13.9 49.9119 13.9C50.4452 13.9 50.8652 14.04 51.1719 14.32C51.4919 14.5867 51.6519 14.94 51.6519 15.38C51.6519 15.9667 51.4252 16.4667 50.9719 16.88C50.5319 17.28 49.9719 17.48 49.2919 17.48C48.7452 17.48 48.3119 17.3467 47.9919 17.08C47.6852 16.8 47.5319 16.4467 47.5319 16.02ZM50.7519 18.84L48.7719 30H45.3519L47.3119 18.84H50.7519Z" fill="#F38620"/>
<path d="M55.1736 25.04L54.2936 30H50.8736L53.3536 15.86H58.8936C60.3603 15.86 61.4669 16.18 62.2136 16.82C62.9736 17.46 63.3536 18.3467 63.3536 19.48C63.3536 19.7467 63.3203 20.08 63.2536 20.48C63.0936 21.36 62.7536 22.1467 62.2336 22.84C61.7136 23.52 61.0336 24.06 60.1936 24.46C59.3536 24.8467 58.3803 25.04 57.2736 25.04H55.1736ZM57.3936 22.3C58.7536 22.3 59.5469 21.6933 59.7736 20.48C59.8003 20.2667 59.8136 20.1133 59.8136 20.02C59.8136 19.0867 59.2203 18.62 58.0336 18.62H56.2936L55.6536 22.3H57.3936ZM69.6364 18.7C70.5297 18.7 71.2631 18.9 71.8364 19.3C72.4231 19.6867 72.7964 20.2067 72.9564 20.86L73.3164 18.84H76.7364L74.7564 30H71.3364L71.7164 27.98C71.3164 28.6467 70.7697 29.1733 70.0764 29.56C69.3964 29.9467 68.6231 30.14 67.7564 30.14C66.5431 30.14 65.5831 29.7533 64.8764 28.98C64.1697 28.1933 63.8164 27.1067 63.8164 25.72C63.8164 25.1733 63.8631 24.64 63.9564 24.12C64.1564 23.0133 64.5297 22.0533 65.0764 21.24C65.6364 20.4133 66.3097 19.7867 67.0964 19.36C67.8964 18.92 68.7431 18.7 69.6364 18.7ZM70.3764 21.7C69.6431 21.7 69.0031 21.94 68.4564 22.42C67.9231 22.9 67.5831 23.5667 67.4364 24.42C67.3964 24.66 67.3764 24.88 67.3764 25.08C67.3764 25.7333 67.5564 26.24 67.9164 26.6C68.2897 26.96 68.7831 27.14 69.3964 27.14C70.1164 27.14 70.7497 26.8933 71.2964 26.4C71.8431 25.9067 72.1897 25.2467 72.3364 24.42C72.3764 24.1933 72.3964 23.98 72.3964 23.78C72.3964 23.1267 72.2097 22.62 71.8364 22.26C71.4764 21.8867 70.9897 21.7 70.3764 21.7ZM81.3902 18.84L82.8502 25.68L86.5502 18.84H90.3502L80.4702 35.32H76.6902L80.3502 29.58L77.5702 18.84H81.3902Z" fill="#283669"/>
<path d="M93.6697 25.04L92.7897 30H89.3697L91.8497 15.86H97.3897C98.8564 15.86 99.963 16.18 100.71 16.82C101.47 17.46 101.85 18.3467 101.85 19.48C101.85 19.7467 101.816 20.08 101.75 20.48C101.59 21.36 101.25 22.1467 100.73 22.84C100.21 23.52 99.5297 24.06 98.6897 24.46C97.8497 24.8467 96.8764 25.04 95.7697 25.04H93.6697ZM95.8897 22.3C97.2497 22.3 98.043 21.6933 98.2697 20.48C98.2964 20.2667 98.3097 20.1133 98.3097 20.02C98.3097 19.0867 97.7164 18.62 96.5297 18.62H94.7897L94.1497 22.3H95.8897ZM108.133 18.7C109.026 18.7 109.759 18.9 110.333 19.3C110.919 19.6867 111.293 20.2067 111.453 20.86L111.812 18.84H115.233L113.253 30H109.833L110.213 27.98C109.813 28.6467 109.266 29.1733 108.573 29.56C107.893 29.9467 107.119 30.14 106.253 30.14C105.039 30.14 104.079 29.7533 103.373 28.98C102.666 28.1933 102.313 27.1067 102.313 25.72C102.313 25.1733 102.359 24.64 102.453 24.12C102.653 23.0133 103.026 22.0533 103.573 21.24C104.133 20.4133 104.806 19.7867 105.593 19.36C106.393 18.92 107.239 18.7 108.133 18.7ZM108.873 21.7C108.139 21.7 107.499 21.94 106.952 22.42C106.419 22.9 106.079 23.5667 105.933 24.42C105.893 24.66 105.873 24.88 105.873 25.08C105.873 25.7333 106.053 26.24 106.413 26.6C106.786 26.96 107.279 27.14 107.893 27.14C108.613 27.14 109.246 26.8933 109.793 26.4C110.339 25.9067 110.686 25.2467 110.833 24.42C110.873 24.1933 110.893 23.98 110.893 23.78C110.893 23.1267 110.706 22.62 110.333 22.26C109.973 21.8867 109.486 21.7 108.873 21.7ZM121.646 15.2L119.046 30H115.606L118.206 15.2H121.646Z" fill="#2F91C1"/>
</svg>
